<?xml version="1.0" encoding="UTF-8"?><svg id="Layer_1" xmlns="http://www.w3.org/2000/svg" viewBox="0 0 375 78"><path d="M38.51,12.6v.27c1.77,1.56,3.16,4.04,4.15,6.08l-20.11,46.45h1.27l8.21-18.95h22.6l8.22,18.95h6.85L46.81,12.6h-8.3Zm-5.96,32.66l10.78-24.88,10.8,24.88h-21.57ZM89.05,12.6h-12.14v52.8h14.69c16.1,0,25.52-11.97,25.52-27.37s-8.88-25.43-28.07-25.43Zm2.64,51.74h-8.36V13.66h5.02c18.74,0,21.65,10.82,21.65,24.64s-2.82,26.05-18.31,26.05ZM147.23,11.72c-13.9,0-22.96,11.53-22.96,27.28s9.06,27.28,22.96,27.28,22.96-11.53,22.96-27.28-9.06-27.28-22.96-27.28Zm0,53.59c-14.26,0-15.84-13.29-15.84-26.31s1.59-26.31,15.84-26.31,15.84,13.29,15.84,26.31-1.59,26.31-15.84,26.31Zm213.82-4.31c-7.22,2.76-13.39,3.26-16.56,3.26h-7.57v-25.35c4.75,0,10.66,.18,20.51,.97v-3.08c-9.86,.79-15.76,.97-20.51,.97V13.74h6.87c3.08,0,9.97,.44,16.13,2.73h.09l-.11-3.87h-29.39v52.8h30.18l.45-4.4h-.09Zm-123.2,3.26h-7.57v-25.35c4.75,0,10.66,.18,20.51,.97v-3.08c-9.86,.79-15.76,.97-20.51,.97V13.74h6.87c3.08,0,9.97,.44,16.13,2.73h.09l-.11-3.87h-29.39v52.8h30.18l.45-4.4h-.09c-7.22,2.76-13.39,3.26-16.56,3.26Zm59.11-7.15l-19.3-44.5h-8.3v.27c1.84,1.68,3.61,4.9,5.19,8.37v44.34h1.15V23.87l18.4,42.41h.7l18.13-48.29v47.41h6.42V12.6h-5.63l-16.74,44.5Zm-87.69-1.48l-10.96-16.27c7.66-2.2,12.67-6.51,12.67-13.55,0-8.54-7.3-13.2-20.41-13.2h-11.26v52.8h6.42v-25.08h5.9l12.85,19.62c2.8,4.28,4.84,5.63,8.36,5.63h4.66v-.26c-2.64-1.76-4.08-3.54-8.23-9.69Zm-17.64-16.27h-5.9V13.57h4.84c9.68,0,13.29,3.43,13.29,13.82,0,8.62-3.7,11.97-12.24,11.97Z" style="fill:#541347;"/></svg>