<?xml version="1.0" encoding="utf-8"?>
<!-- Generator: Adobe Illustrator 27.9.0, SVG Export Plug-In . SVG Version: 6.00 Build 0)  -->
<svg version="1.1" id="Layer_1" xmlns="http://www.w3.org/2000/svg" xmlns:xlink="http://www.w3.org/1999/xlink" x="0px" y="0px"
	 width="200" viewBox="0 0 2000 318.2" style="enable-background:new 0 0 2000 318.2;" xml:space="preserve">
<style type="text/css">
	.st0{fill:#010101;}
	.st1{fill:#ED2024;}
	.st2{fill:#FFFFFF;}
</style>
<g>
	<path class="st0" d="M477.3,79.6h39.4v62h56v-62h39.5v159.1h-39.5v-63.5h-56v63.5h-39.4V79.6z"/>
	<path class="st0" d="M710,240c-16,0-30-3.3-41.8-10c-11.8-6.7-20.9-16.1-27.3-28.3c-6.4-12.2-9.5-26.4-9.5-42.6s3.2-30.7,9.6-42.8
		c6.4-12.2,15.6-21.6,27.4-28.2c11.9-6.6,25.8-9.9,41.6-9.9c12.5,0,23.8,2.5,33.8,7.5c10.1,5,18.2,12,24.3,21.1
		c6.1,9,9.7,19.4,10.8,31.2l-39.6,2.1c-1.6-9.2-5.2-16.4-10.8-21.5c-5.5-5.2-12.5-7.8-20.7-7.8c-7.4,0-13.8,2-19.3,6
		c-5.4,4-9.5,9.6-12.4,17c-2.8,7.2-4.2,15.7-4.2,25.3s1.4,18.1,4.2,25.4c2.9,7.2,7,12.9,12.4,16.9c5.5,4,11.9,6,19.3,6
		c8.3,0,15.2-2.5,20.6-7.7c5.5-5.2,9.2-12.4,10.9-21.6l39.6,2c-1,12-4.7,22.5-10.9,31.6c-6.1,9-14.2,16-24.3,21
		C733.6,237.5,722.4,240,710,240L710,240z"/>
	<path class="st0" d="M856.8,240c-12.8,0-24.3-2.2-34.5-6.7c-10.1-4.4-18.1-10.7-23.9-18.8c-5.8-8.1-8.6-17.5-8.6-28l38.5-1.2
		c0.5,7.6,3.3,13.6,8.4,17.9c5.1,4.2,12,6.3,20.7,6.3c7.3,0,13.1-1.4,17.4-4.3c4.3-2.9,6.4-7,6.4-12.3c0-4.1-1.4-7.4-4.3-9.9
		c-2.8-2.5-6.4-4.4-10.8-5.7c-4.4-1.3-10.5-2.8-18.4-4.3c-1-0.1-2.6-0.4-4.7-0.9c-11.6-2.4-21-5.3-28.1-8.7
		c-7.1-3.4-12.5-8-16.2-13.6c-3.6-5.8-5.4-13.2-5.4-22.3c0-9.8,2.8-18.4,8.3-25.9c5.6-7.5,13.1-13.4,22.5-17.4
		c9.4-4.1,19.6-6.1,30.6-6.1c12.1,0,22.8,2.1,32.3,6.3c9.5,4.1,17,10,22.3,17.6c5.4,7.6,8.1,16.4,8.1,26.4l-38.5,2.1
		c-0.5-7-2.9-12.3-7.1-16.1c-4.1-3.8-9.8-5.8-17.1-5.8c-6.6,0-11.9,1.4-15.9,4.1c-3.9,2.7-5.9,6.6-5.9,11.7c0,4.1,1.4,7.3,4.1,9.8
		c2.8,2.4,6.3,4.2,10.4,5.4c4.2,1.2,10.1,2.5,17.8,4l5.1,1c11.7,2.4,21.1,5.2,28.3,8.4c7.3,3.3,12.8,7.7,16.5,13.2
		c3.8,5.5,5.7,12.8,5.7,21.6c0,10.4-2.9,19.5-8.8,27.4c-5.8,7.8-13.6,13.9-23.4,18.2C879.1,237.9,868.4,240,856.8,240L856.8,240z"/>
	<path class="st0" d="M1053.4,240c-12.5,0-23.4-2.4-32.7-7.3c-9.3-5-16.5-11.9-21.5-21c-5-9-7.4-19.5-7.4-31.5c0-12,2.5-22.9,7.5-32
		c5.1-9,12.3-15.9,21.5-20.7c9.3-4.9,20.2-7.3,32.6-7.3c10.9,0,20.4,1.8,28.7,5.5c8.4,3.7,15.1,9,20.2,16c5.2,7,8.5,15.2,9.9,24.9
		l-38.7,2.1c-0.4-3.4-1.6-6.5-3.5-9.4c-1.8-2.9-4.2-5.1-7.1-6.8c-2.9-1.7-6-2.5-9.4-2.5c-4.8,0-9,1.3-12.6,3.8
		c-3.5,2.5-6.3,6.1-8.2,10.6c-1.9,4.5-2.9,9.8-2.9,15.9c0,6.1,1,11.3,2.9,15.9c1.9,4.5,4.7,8,8.2,10.5c3.6,2.5,7.8,3.8,12.6,3.8
		c3.5,0,6.8-0.9,9.9-2.7c3-1.8,5.5-4.1,7.3-7.1c1.9-3,2.9-6.3,3.1-9.9l38.7,2.1c-1.4,9.8-4.7,18.2-9.9,25.3
		c-5.1,7-11.8,12.4-20.2,16.2C1074,238.1,1064.3,240,1053.4,240L1053.4,240z"/>
	<path class="st0" d="M1185.2,240c-12.7,0-23.8-2.4-33.4-7.3c-9.5-5-16.9-11.9-22.1-21c-5.2-9-7.8-19.5-7.8-31.5
		c0-12,2.6-22.8,7.9-31.8c5.3-9,12.8-16,22.3-20.9c9.5-4.9,20.6-7.3,33.1-7.3c12.5,0,23.8,2.5,33.3,7.4c9.5,4.9,16.9,11.9,22.1,21
		c5.2,9,7.8,19.6,7.8,31.6c0,12.1-2.6,22.7-7.9,31.7c-5.3,9-12.6,16-22.2,20.9C1208.7,237.6,1197.7,240,1185.2,240L1185.2,240z
		 M1185.2,210.4c5.2,0,9.7-1.3,13.4-3.8c3.8-2.5,6.8-6,8.9-10.5c2.1-4.6,3.1-9.9,3.1-15.9c0-6-1-11.4-3.1-15.9
		c-2.1-4.6-5-8.1-8.9-10.7c-3.8-2.5-8.3-3.8-13.4-3.8s-9.7,1.3-13.5,3.8c-3.8,2.5-6.7,6.1-8.8,10.7c-2,4.5-3,9.8-3,15.9
		s1,11.3,3,15.9c2.1,4.5,5,8,8.8,10.5C1175.5,209.1,1180,210.4,1185.2,210.4z"/>
	<path class="st0" d="M1264.6,121.5h34.5l-10.7,26.7h4.5c4-6.8,8-12.2,12.1-16.2c4.1-4.1,8.5-7,13.3-8.9c4.9-1.8,10.6-2.8,17.1-3
		c14,0,24.5,5.1,31.6,15.4l-7.3,12.5h4.5c5-9.3,11.4-16.3,19.2-21c7.8-4.7,16.6-7,26.6-7c13,0,23.2,4.5,30.6,13.4
		c7.4,8.9,11.1,23,11.1,42.3v63h-37.2v-65.2c0-8-1.4-13.9-4.3-17.9c-2.8-3.9-7.2-5.9-13.3-5.9s-11,2.1-14.6,6.3
		c-3.6,4.2-5.5,10.1-5.5,17.5v65.1h-37.2v-65.2c0-8.1-1.4-14.1-4.2-18c-2.7-3.8-7.2-5.8-13.4-5.8c-6.2,0-11.2,2.2-14.9,6.5
		c-3.6,4.3-5.4,10.2-5.4,17.7v64.7h-37.2V121.5L1264.6,121.5z"/>
	<path class="st0" d="M1470.8,121.5h34.5l-6.1,26.5h4.7c2.5-9.4,7.2-16.4,14-21c6.8-4.6,14.8-6.9,24.1-6.9c10.6,0,19.9,2.6,28,7.8
		c8.1,5.2,14.3,12.3,18.7,21.4c4.4,9.1,6.7,19.4,6.7,31c0,11.5-2.2,21.7-6.6,30.7c-4.3,9-10.5,16.1-18.5,21.3
		c-8.1,5.1-17.5,7.7-28.2,7.7c-8.7,0-16.2-2.1-22.5-6.4c-6.3-4.4-11.5-11.5-15.6-21.5h-4.5c0.1,0.2,0.6,1.3,1.4,3.2
		c2.3,4.8,4.1,9.1,5.5,13c1.5,3.8,2.2,7.3,2.1,10.4l-0.3,45.5h-37.2V121.5z M1532.2,210.5c5,0,9.4-1.3,13.2-3.8
		c3.8-2.6,6.7-6.2,8.7-10.8c2.1-4.6,3.1-9.9,3.1-15.9c0-6-1-11.3-3.1-15.9c-2-4.7-4.9-8.2-8.7-10.8c-3.8-2.6-8.2-3.9-13.2-3.9
		s-9.4,1.3-13.2,3.9c-3.7,2.5-6.6,6.1-8.5,10.8c-2,4.6-3,9.9-3,15.9c0,6,1,11.3,3,15.9c2,4.6,4.8,8.2,8.5,10.8
		C1522.8,209.2,1527.2,210.5,1532.2,210.5z"/>
	<path class="st0" d="M1729.2,207.9v30.7h-18.8c-6.1,0-10.7-1.1-13.6-3.2c-2.9-2.2-4.3-5.1-4.3-8.7c0-2.2,0.5-4.6,1.6-7.1l2.7-7.1
		h-4.4c-4.7,9.2-10.3,16-17,20.6c-6.7,4.5-14.9,6.8-24.8,6.8c-8.7,0-16.4-1.3-23-4c-6.6-2.7-11.7-6.7-15.3-11.9s-5.4-11.4-5.4-18.5
		c0-8.3,2.2-15.1,6.4-20.4c4.3-5.4,10.6-9.6,18.9-12.6c8.3-3,18.8-5.3,31.4-6.7l19-2.1v-2.9c0-4.5-1.8-8.1-5.2-10.8
		c-3.5-2.7-8.1-4-13.9-4c-3.4,0-6.5,0.7-9.2,2c-2.7,1.3-4.8,3-6.3,5.2c-1.6,2.1-2.5,4.5-2.8,7l-35.7-2.2c0.7-8,3.3-14.8,8-20.5
		c4.7-5.7,11.1-10,19.2-13c8.1-3,17.7-4.4,28.6-4.4c17.3,0,30.6,3.7,39.9,11c9.4,7.3,14.1,17.9,14.1,31.8v37.5
		c0,2.7,0.6,4.7,1.8,5.8c1.3,1.1,3.3,1.7,6,1.7L1729.2,207.9L1729.2,207.9z M1658.4,214.2c7.2,0,12.9-2.2,17.2-6.5
		c4.4-4.4,6.6-10.2,6.8-17.5v-3.3l-18.3,2.1c-6.4,0.8-11.4,2.3-14.7,4.6c-3.4,2.1-5.1,5.3-5.1,9.3c0,3.5,1.3,6.3,3.8,8.3
		C1650.5,213.2,1654,214.3,1658.4,214.2L1658.4,214.2z"/>
	<path class="st0" d="M1743,121.5h34.5l-10.3,26.7h4.5c5.7-10.1,11.8-17.2,18.3-21.5c6.5-4.4,14.5-6.5,24.1-6.5
		c14.4,0,25.8,4.5,34.1,13.4c8.4,8.9,12.5,23,12.5,42.3v62.8h-37.2v-60.9c0-9.4-1.7-16.4-5-21c-3.3-4.6-8.4-6.9-15.5-6.9
		c-7.1,0-13,2.5-17,7.4c-3.9,5-5.9,11.9-5.9,21v60.4H1743V121.5L1743,121.5z"/>
	<path class="st0" d="M2000,121.5l-40.6,132.7c-2.2,7.1-4.6,12.8-7.3,17.1c-2.7,4.4-6.2,7.6-10.3,9.6c-4.1,2.1-9.2,3.2-15.3,3.2
		h-38.8v-30.7h22.4c3.9,0,7.1-0.7,9.5-2c2.4-1.3,4.3-3.6,5.7-6.8l2.3-6h-21l-40.7-117.2h39.6L1933,209h3.8l23.4-87.5L2000,121.5
		L2000,121.5z"/>
	<path class="st1" d="M0,27.2V291c0,15,12.2,27.2,27.2,27.2H291c15,0,27.2-12.2,27.2-27.2V27.2C318.2,12.2,306,0,291,0H27.2
		C12.2,0,0,12.2,0,27.2z"/>
	<path class="st2" d="M153.8,99.8L63.4,218.5h37.2L191,99.8H153.8z"/>
	<path class="st2" d="M127.2,218.5h37.2l90.4-118.7h-37.2L127.2,218.5z"/>
</g>
</svg>
