<svg xmlns="http://www.w3.org/2000/svg" width="172" height="49" fill="none" viewBox="0 0 172 49"><path fill="#141F52" fill-rule="evenodd" d="M165.025 25.19c.725.306 1.51.46 2.355.46.916 0 1.719-.166 2.409-.495.69-.33 1.231-.783 1.624-1.36.392-.577.589-1.242.589-1.995 0-.883-.268-1.625-.803-2.225-.524-.6-1.315-1.071-2.374-1.413l-2.444-.76c-.488-.152-.851-.364-1.089-.635a1.464 1.464 0 0 1-.357-.971c0-.33.084-.612.25-.848.179-.247.422-.435.732-.565a2.55 2.55 0 0 1 1.07-.211c.69 0 1.297.182 1.821.547.523.353.916.86 1.177 1.519l1.999-.883a4.55 4.55 0 0 0-1.089-1.713 4.914 4.914 0 0 0-1.713-1.148 5.566 5.566 0 0 0-2.195-.424c-.868 0-1.641.165-2.319.495a3.79 3.79 0 0 0-1.571 1.342c-.368.576-.553 1.242-.553 1.995 0 .86.262 1.607.785 2.243.524.635 1.303 1.112 2.338 1.43l2.552.812c.464.141.809.341 1.035.6.238.248.357.566.357.954 0 .33-.09.612-.268.848-.167.235-.411.423-.732.565-.309.13-.678.194-1.106.194a3.498 3.498 0 0 1-2.052-.636c-.607-.435-1.071-1.03-1.392-1.783l-2.016.865c.237.73.612 1.371 1.124 1.925a5.638 5.638 0 0 0 1.856 1.271ZM58.844 12.282v13.155h2.427v-3.69l1.784-2.102 3.569 5.792h2.855l-4.771-7.747 4.61-5.408h-3.051l-4.996 5.849v-5.849h-2.427Zm14.502 12.732c.797.423 1.707.635 2.73.635s1.927-.212 2.713-.636a4.767 4.767 0 0 0 1.873-1.748c.452-.741.678-1.583.678-2.525v-8.458h-2.427v8.335c0 .541-.124 1.03-.374 1.465a2.598 2.598 0 0 1-1 1.024c-.416.236-.904.354-1.463.354a2.988 2.988 0 0 1-1.463-.354 2.726 2.726 0 0 1-1.017-1.024 3.007 3.007 0 0 1-.357-1.465v-8.335h-2.427v8.458c0 .942.226 1.784.678 2.525a4.798 4.798 0 0 0 1.856 1.748Zm10.417.423V12.282h5.603c.88 0 1.63.153 2.249.46.63.293 1.112.717 1.445 1.27.345.542.517 1.201.517 1.978 0 .6-.166 1.166-.5 1.695a2.897 2.897 0 0 1-.565.658c.214.135.402.28.566.437.38.365.648.771.803 1.219.154.447.232.918.232 1.412 0 1.26-.423 2.249-1.267 2.967-.833.706-1.993 1.06-3.48 1.06h-5.603Zm2.427-2.119h3.426c.63 0 1.13-.17 1.499-.512.38-.353.57-.818.57-1.395 0-.577-.19-1.042-.57-1.395-.369-.353-.868-.53-1.499-.53H86.19v3.832Zm0-5.933h3.301c.5 0 .898-.141 1.196-.424.297-.294.446-.67.446-1.13 0-.459-.149-.824-.446-1.095-.298-.27-.696-.406-1.196-.406H86.19v3.055Zm9.91-5.103v13.155h8.834v-2.119h-6.406v-3.425h6.049v-2.12h-6.05v-3.372h6.407v-2.119h-8.833Zm10.613 13.155V12.282h4.943c.904 0 1.701.165 2.391.495a3.688 3.688 0 0 1 1.642 1.412c.392.612.589 1.36.589 2.243 0 .906-.22 1.677-.661 2.313a3.82 3.82 0 0 1-1.748 1.412l3.051 5.28h-2.748l-2.746-4.856h-2.286v4.856h-2.427Zm2.427-6.975h2.552c.44 0 .821-.082 1.142-.247.321-.176.571-.418.749-.724a2.06 2.06 0 0 0 .268-1.06c0-.411-.089-.765-.268-1.059a1.797 1.797 0 0 0-.749-.706c-.321-.177-.702-.265-1.142-.265h-2.552v4.061Zm9.371-6.18v13.155h2.426v-8.603l6.317 8.603h1.91V12.282h-2.427v8.44l-6.335-8.44h-1.891Zm13.226 13.155V12.282h8.833v2.119h-6.406v3.373h6.049v2.119h-6.049v3.425h6.406v2.12h-8.833Zm12.968-11.036v11.036h2.445V14.401h3.39v-2.119h-9.279v2.119h3.444Zm7.316 11.036V12.282h8.833v2.119h-6.406v3.373h6.049v2.119h-6.049v3.425h6.406v2.12h-8.833Zm-5.184 11.486c.35.195.756.293 1.218.293.467 0 .873-.098 1.218-.293.35-.196.622-.463.815-.8.192-.345.289-.736.289-1.175v-4.466h-.701v4.466c0 .32-.07.602-.211.845a1.448 1.448 0 0 1-.569.56c-.24.13-.52.196-.841.196a1.78 1.78 0 0 1-.85-.196 1.533 1.533 0 0 1-.57-.56 1.723 1.723 0 0 1-.201-.845v-4.466h-.701v4.466c0 .439.096.83.289 1.174.193.338.464.605.815.8Zm-.009-8.256v.89h.876v-.89h-.876Zm1.577 0v.89h.876v-.89h-.876Zm-86.802 8.55c-.467 0-.9-.087-1.297-.259a3.234 3.234 0 0 1-1.033-.72 3.345 3.345 0 0 1-.684-1.086 3.681 3.681 0 0 1-.245-1.36c0-.493.079-.947.236-1.362a3.22 3.22 0 0 1 .684-1.085 3.093 3.093 0 0 1 1.042-.712c.398-.172.83-.258 1.297-.258.468 0 .885.08 1.253.24.374.16.69.374.947.64.257.262.44.55.552.864l-1.07.507a1.744 1.744 0 0 0-.621-.819c-.293-.22-.646-.329-1.06-.329-.41 0-.772.098-1.087.294a2.02 2.02 0 0 0-.728.81c-.169.343-.254.746-.254 1.21 0 .462.085.868.255 1.218.175.344.417.614.727.81.315.195.677.293 1.086.293.415 0 .768-.107 1.06-.32.293-.22.5-.495.623-.828l1.069.508a2.412 2.412 0 0 1-.552.871 2.929 2.929 0 0 1-.947.632c-.368.16-.785.24-1.253.24Zm6.935 0c-.48 0-.926-.087-1.34-.259a3.33 3.33 0 0 1-1.815-1.806 3.613 3.613 0 0 1-.254-1.36c0-.493.085-.947.254-1.362a3.214 3.214 0 0 1 1.805-1.797 3.486 3.486 0 0 1 1.35-.258c.485 0 .934.086 1.35.258a3.33 3.33 0 0 1 1.086.72c.31.303.549.662.718 1.077.175.415.263.869.263 1.361 0 .487-.088.94-.263 1.361a3.33 3.33 0 0 1-1.814 1.806 3.423 3.423 0 0 1-1.34.258Zm0-1.104c.321 0 .616-.056.885-.169a2.178 2.178 0 0 0 1.165-1.228c.111-.284.167-.593.167-.925 0-.332-.056-.637-.167-.916a2.05 2.05 0 0 0-.464-.739 2.007 2.007 0 0 0-.701-.489 2.265 2.265 0 0 0-.885-.169c-.316 0-.608.056-.876.17a2.096 2.096 0 0 0-.71.488 2.223 2.223 0 0 0-.465.739 2.456 2.456 0 0 0-.166.916c0 .332.055.64.166.925.111.285.266.531.465.739.204.207.44.37.71.49.268.112.56.168.876.168Zm4.477-5.631v6.628h1.191v-4.587l2.024 2.807h.14l2.016-2.726v4.506h1.2v-6.628h-1.139l-2.123 2.993-2.17-2.993h-1.14Zm7.82 6.628v-6.628h1.14l2.17 2.993 2.123-2.993h1.14v6.628h-1.201v-4.506L84.19 35.33h-.14l-2.024-2.807v4.587h-1.192Zm8.996-.214c.39.214.838.32 1.34.32.502 0 .946-.106 1.332-.32.391-.213.698-.507.92-.88.222-.374.333-.798.333-1.273v-4.261h-1.192v4.199c0 .273-.061.519-.184.738-.117.22-.28.392-.49.516a1.406 1.406 0 0 1-.719.178c-.269 0-.508-.06-.718-.178a1.358 1.358 0 0 1-.5-.516 1.547 1.547 0 0 1-.175-.738v-4.2h-1.192v4.262c0 .475.111.899.333 1.272.222.374.526.668.912.881Zm5.115.214v-6.628h.928l3.111 4.252v-4.252h1.192v6.628h-.938l-3.102-4.335v4.335h-1.191Zm6.494-6.628v6.628h1.192v-6.628h-1.192Zm3.604 6.628v-5.56h-1.691v-1.068h4.556v1.067h-1.665v5.56h-1.2Zm5.257-2.936v2.936h1.201v-2.945l2.19-3.683h-1.358l-1.433 2.468-1.441-2.468h-1.358l2.199 3.692Zm5.677 2.936v-6.628h2.129c.69 0 1.288.142 1.797.427.514.278.911.667 1.191 1.165.281.492.421 1.065.421 1.717 0 .647-.14 1.222-.421 1.726-.28.498-.677.89-1.191 1.174-.509.28-1.107.419-1.797.419h-2.129Zm1.192-1.068h.964c.444 0 .826-.092 1.148-.276.327-.19.581-.45.762-.783.181-.338.271-.735.271-1.192 0-.462-.09-.86-.271-1.192a1.93 1.93 0 0 0-.762-.774c-.322-.184-.704-.276-1.148-.276h-.964v4.493Zm6.746-5.56-2.252 6.628h1.289l.473-1.424h2.523l.465 1.424h1.296l-2.252-6.628h-1.542Zm.771 1.342.92 2.795h-1.84l.92-2.795Zm4.799 5.286v-2.936l-2.2-3.692h1.358l1.441 2.468 1.433-2.468h1.359l-2.191 3.683v2.945h-1.2Zm5.028-.125a2.88 2.88 0 0 0 1.157.231c.449 0 .844-.083 1.183-.249.338-.166.604-.394.797-.685.193-.29.289-.625.289-1.005 0-.445-.131-.819-.394-1.121-.257-.303-.646-.54-1.166-.712l-1.2-.382c-.24-.078-.418-.184-.535-.32a.754.754 0 0 1-.175-.49c0-.166.041-.308.123-.427a.828.828 0 0 1 .359-.285c.152-.07.327-.106.526-.106.339 0 .637.091.894.275.257.178.449.433.578.765l.981-.444a2.308 2.308 0 0 0-.534-.863 2.411 2.411 0 0 0-.841-.579 2.673 2.673 0 0 0-1.078-.213c-.427 0-.806.083-1.139.249-.327.16-.584.386-.771.676-.181.29-.272.626-.272 1.005 0 .433.129.81.386 1.13.257.32.639.56 1.147.72l1.253.41c.228.071.398.172.509.303a.677.677 0 0 1 .175.48.696.696 0 0 1-.132.427.836.836 0 0 1-.359.285 1.37 1.37 0 0 1-.543.098c-.374 0-.71-.107-1.008-.32a2.075 2.075 0 0 1-.683-.9l-.99.437c.117.367.301.69.552.97.257.272.561.486.911.64Zm5.55.125v-.48l3.733-5.481h-3.514v-.667h4.434v.48l-3.724 5.48h3.802v.668h-4.731Zm11.83 0v-6.628h2.243c.427 0 .801.086 1.122.258.321.166.57.403.745.711.181.303.271.656.271 1.06 0 .468-.122.868-.368 1.2a1.904 1.904 0 0 1-.981.703l1.525 2.696h-.824l-1.441-2.58h-1.591v2.58h-.701Zm.701-3.248h1.577c.281 0 .526-.053.736-.16a1.22 1.22 0 0 0 .491-.471c.117-.208.175-.451.175-.73 0-.279-.058-.519-.175-.72a1.162 1.162 0 0 0-.491-.463 1.533 1.533 0 0 0-.736-.17h-1.577v2.714Zm4.913-3.38v6.628h.701v-6.628h-.701Zm5.221 6.734a3.18 3.18 0 0 1-1.271-.249 3.143 3.143 0 0 1-1.008-.711 3.392 3.392 0 0 1-.657-1.086 3.845 3.845 0 0 1-.236-1.37c0-.498.079-.955.236-1.37a3.39 3.39 0 0 1 .657-1.085 3.084 3.084 0 0 1 2.279-.97 2.83 2.83 0 0 1 2.085.863c.245.249.421.513.526.792l-.657.293a2.08 2.08 0 0 0-.754-.925c-.333-.237-.733-.356-1.2-.356-.479 0-.906.116-1.28.347a2.37 2.37 0 0 0-.876.97c-.21.41-.315.89-.315 1.441 0 .546.105 1.026.315 1.441.21.416.502.739.876.97.374.226.801.338 1.28.338.467 0 .867-.115 1.2-.347.339-.231.59-.54.754-.925l.657.294a2.4 2.4 0 0 1-.526.791c-.24.25-.537.454-.894.614-.35.16-.747.24-1.191.24Zm3.866-6.734v6.628h.701v-2.98h3.505v2.98h.701v-6.628h-.701v2.98h-3.505v-2.98h-.701ZM26.306.38a3.83 3.83 0 0 0-3.325 0L6.289 8.424A3.826 3.826 0 0 0 4.22 11.02L1.403 23.375H11.68l1.44-6.313c.13-.568.51-1.045 1.035-1.298l9.657-4.655a1.915 1.915 0 0 1 1.663 0l9.657 4.655c.525.253.905.73 1.035 1.298l1.44 6.313h10.277L45.066 11.02a3.826 3.826 0 0 0-2.069-2.596L26.306.38ZM.096 29.105l.431-1.892h10.278l-.071.312c-.13.567.006 1.162.369 1.617l6.684 8.389c.363.456.915.72 1.498.72h10.717c.583 0 1.134-.264 1.497-.72l6.685-8.39c.362-.454.498-1.05.369-1.616l-.071-.312h10.277l.432 1.892a3.824 3.824 0 0 1-.738 3.233l-11.554 14.5a3.829 3.829 0 0 1-2.994 1.443H15.382a3.829 3.829 0 0 1-2.995-1.443L.834 32.338a3.824 3.824 0 0 1-.738-3.233Zm23.707-13.351a1.915 1.915 0 0 1 1.663 0l6.06 2.92c.524.253.905.73 1.034 1.298l1.498 6.566a1.912 1.912 0 0 1-.37 1.617l-4.194 5.264a1.914 1.914 0 0 1-1.497.722h-6.724a1.914 1.914 0 0 1-1.497-.722l-4.195-5.264a1.912 1.912 0 0 1-.37-1.617l1.498-6.566c.13-.568.51-1.045 1.035-1.298l6.06-2.92Zm2.27 5.356H23.39v2.687h-2.68v2.687h2.68v2.686h2.684v-2.686h2.69v-2.687h-2.69V21.11Z" clip-rule="evenodd"/></svg>
