<svg width="150" height="32" xmlns="http://www.w3.org/2000/svg">
    <g fill="none">
        <g fill="#008AFF">
            <path
                d="m93.87 25.39-3.535-5.702-1.78 1.716v3.986h-2.687V6.852h2.688v11.322l5.139-5.035h3.326l-4.788 4.657 4.672 7.594zM51.642 11.057c-.73-1.107-1.926-1.777-3.678-1.777-2.015 0-3.036 1.164-3.036 2.706 0 1.28.7 1.978 2.248 2.475l2.366.698c2.978.902 4.378 2.444 4.378 4.86 0 3.347-2.54 5.443-6.365 5.443-4.058 0-5.665-1.92-6.393-3.376l2.073-1.6c.642 1.31 1.605 2.474 4.32 2.474 2.189 0 3.329-1.106 3.329-2.706 0-1.368-.877-2.066-2.394-2.533l-2.366-.698c-2.95-.902-4.262-2.56-4.262-4.86 0-2.795 1.84-5.385 6.072-5.385 3.036 0 4.846 1.28 5.75 2.679l-2.042 1.6z">
            </path>
            <path
                d="M58.75 21.39c0 1.018.495 1.573 1.488 1.573.496 0 1.11-.146 1.578-.32L61.962 25a7.977 7.977 0 0 1-2.568.467c-2.394 0-3.357-1.542-3.357-3.725V15.25H53.79v-2.036l2.247-.262v-2.938l2.715-.53v3.462h3.008v2.298h-3.008v6.146h-.003zm8.48 1.978a4.108 4.108 0 0 0 2.919-1.252v-2.62l-1.694.231c-1.956.262-3.066.874-3.066 2.097.03.993.645 1.544 1.84 1.544zm3.096 1.835v-1.484c-.789.874-2.073 1.776-3.999 1.776-2.247 0-3.678-1.338-3.678-3.523 0-2.59 2.278-3.754 5.809-4.016l1.721-.174v-.96c0-1.222-.526-1.92-2.247-1.92-1.52 0-2.247.524-2.247 1.31v.583h-2.366a7.342 7.342 0 0 1-.058-.845c0-1.892 1.721-3.26 4.818-3.26 2.978 0 4.788 1.28 4.788 4.074v8.442h-2.541v-.003zm9.589-12.516c2.19 0 3.883.872 4.76 2.59l-1.926 1.369c-.553-.99-1.4-1.573-2.629-1.573-2.189 0-2.978 1.689-2.978 3.986 0 2.298.817 3.987 2.978 3.987 1.226 0 2.104-.582 2.657-1.573l1.899 1.369c-.878 1.715-2.6 2.59-4.76 2.59-3.941 0-5.577-2.88-5.577-6.403.028-3.46 1.663-6.342 5.576-6.342z">
            </path>
        </g>
        <g fill="#0F1D2D">
            <path
                d="M108.631 11.057c-.731-1.107-1.926-1.777-3.678-1.777-2.015 0-3.036 1.164-3.036 2.706 0 1.28.7 1.978 2.247 2.475l2.366.698c2.978.902 4.381 2.444 4.381 4.86 0 3.347-2.54 5.443-6.365 5.443-4.057 0-5.665-1.92-6.396-3.376l2.073-1.6c.642 1.31 1.605 2.474 4.32 2.474 2.19 0 3.33-1.106 3.33-2.706 0-1.368-.878-2.066-2.394-2.533l-2.366-.698c-2.951-.902-4.262-2.56-4.262-4.86 0-2.795 1.84-5.385 6.072-5.385 3.036 0 4.845 1.28 5.75 2.679l-2.042 1.6z">
            </path>
            <path
                d="M115.741 21.39c0 1.018.496 1.573 1.489 1.573.495 0 1.11-.146 1.578-.32l.146 2.358a7.974 7.974 0 0 1-2.568.467c-2.394 0-3.357-1.542-3.357-3.725V15.25h-2.247v-2.036l2.247-.262v-2.935l2.715-.53v3.462h3.008v2.298h-3.008v6.143h-.003zm8.48 1.978a4.105 4.105 0 0 0 2.92-1.252v-2.62l-1.694.231c-1.957.262-3.067.874-3.067 2.097.003.993.645 1.544 1.841 1.544zm3.097 1.835v-1.484c-.789.874-2.073 1.776-3.999 1.776-2.248 0-3.678-1.338-3.678-3.523 0-2.59 2.277-3.754 5.809-4.016l1.721-.174v-.96c0-1.222-.526-1.92-2.247-1.92-1.52 0-2.247.524-2.247 1.31v.583h-2.367a7.457 7.457 0 0 1-.058-.845c0-1.892 1.722-3.26 4.819-3.26 2.977 0 4.787 1.28 4.787 4.074v8.442h-2.54v-.003zm8.421-3.813c0 1.018.496 1.573 1.489 1.573.496 0 1.11-.146 1.578-.32l.146 2.358a7.958 7.958 0 0 1-2.568.467c-2.394 0-3.357-1.542-3.357-3.725V15.25h-2.247v-2.036l2.247-.262v-2.935l2.715-.53v3.462h3.008v2.298h-3.008v6.143h-.003zm11.72-3.464c.031-.174.031-.35.031-.467 0-1.63-1.021-2.59-2.513-2.59-1.926 0-2.715 1.338-2.831 3.057h5.313zm.994 4.016 1.284 1.777c-.874.932-2.568 1.776-4.497 1.776-4.118 0-5.84-2.678-5.84-6.403 0-3.522 1.838-6.402 5.577-6.402 3.623 0 5.023 2.59 5.023 5.238 0 .613-.058 1.515-.174 2.009h-7.68c.058 1.95 1.021 3.23 3.094 3.23 1.052-.03 2.278-.38 3.213-1.225z">
            </path>
        </g>
        <g fill="#0E1D2D">
            <path d="m5.93 9.81 10.171-5.854L26.272 9.81l-9.542 5.48a1.24 1.24 0 0 1-1.26 0L5.93 9.81z"></path>
            <path
                d="m15.47 17.719-6.647-3.827-2.892 1.672 9.54 5.482a1.24 1.24 0 0 0 1.259 0l9.54-5.482-2.893-1.672-6.647 3.827a1.24 1.24 0 0 1-1.26 0z">
            </path>
            <path
                d="m15.47 23.6-6.647-3.826-2.892 1.672 9.54 5.481a1.24 1.24 0 0 0 1.259 0l9.54-5.481-2.893-1.672-6.634 3.826a1.266 1.266 0 0 1-1.273 0z">
            </path>
        </g>
        <path
            d="M0 15.961c0 2.828.744 5.482 2.034 7.782l1.805-1.042v-1.642c0-.441.243-.858.63-1.084l2.278-1.313-2.205-1.272a1.27 1.27 0 0 1-.631-1.084v-1.142c0-.441.23-.872.63-1.084l2.192-1.286-2.178-1.255a1.27 1.27 0 0 1-.63-1.084v-.998c0-.458.243-.872.63-1.101L14.94 2.4V.044C6.603.6 0 7.526 0 15.961zm32.128-.027a15.87 15.87 0 0 1-2.034 7.782l-1.805-1.043v-1.641c0-.442-.243-.858-.63-1.084l-2.278-1.314 2.206-1.271a1.27 1.27 0 0 0 .63-1.084v-1.143c0-.44-.23-.871-.63-1.084l-2.192-1.285 2.178-1.255a1.27 1.27 0 0 0 .63-1.084v-.999c0-.458-.243-.872-.63-1.1l-10.384-5.96V0c8.336.557 14.94 7.495 14.94 15.934zM16.057 31.912c5.273 0 9.955-2.54 12.878-6.453l-2.751-1.57-9.44 5.408a1.24 1.24 0 0 1-1.26 0l-9.54-5.468-1.748.999-.2.113-.844.485c2.937 3.929 7.62 6.486 12.905 6.486z"
            fill="#667782"></path>
    </g>
</svg>