<svg xmlns="http://www.w3.org/2000/svg" width="23" height="24" viewBox="0 0 23 24" fill="none"><path fill="currentColor" d="M13.472 14.398c-.466-.492-1.284-.807-2.25-.807-.965 0-1.783.315-2.248.807-.243.256-.372.519-.412.893-.079.725-.035 1.35.05 2.348.081.95.235 2.22.435 3.51.143.92.259 1.416.365 1.772.17.576.81 1.079 1.81 1.079 1.001 0 1.64-.504 1.812-1.08.106-.355.221-.85.364-1.77.2-1.292.354-2.56.435-3.511.085-.998.13-1.623.05-2.348a1.427 1.427 0 0 0-.411-.893Zm-4.786-4.375a2.54 2.54 0 1 0 5.079 0 2.54 2.54 0 0 0-5.08 0ZM11.194 0C5.254.017.387 4.836.314 10.775c-.06 4.812 3.011 8.927 7.3 10.436.104.036.21-.05.193-.16-.056-.373-.11-.748-.158-1.117a.376.376 0 0 0-.22-.296c-3.39-1.48-5.758-4.88-5.72-8.818.05-5.168 4.27-9.381 9.438-9.423 5.283-.043 9.595 4.242 9.595 9.516 0 3.899-2.357 7.256-5.72 8.726a.375.375 0 0 0-.22.295c-.05.37-.102.745-.158 1.118-.017.109.089.195.193.159 4.248-1.494 7.301-5.546 7.301-10.298 0-6.028-4.913-10.93-10.944-10.913Zm-.198 5.007a5.92 5.92 0 0 1 6.149 5.91c0 1.697-.72 3.23-1.87 4.31a.452.452 0 0 0-.142.355c.023.406.015.8-.012 1.246a.144.144 0 0 0 .224.128 7.308 7.308 0 0 0 3.196-6.04c0-4.127-3.438-7.466-7.6-7.305-3.868.15-6.971 3.34-7.02 7.21a7.308 7.308 0 0 0 3.196 6.135.144.144 0 0 0 .223-.127c-.027-.446-.035-.841-.012-1.247a.452.452 0 0 0-.143-.355 5.899 5.899 0 0 1-1.867-4.47c.082-3.099 2.58-5.63 5.678-5.75Z"/></svg>
