<svg xmlns="http://www.w3.org/2000/svg" width="18" height="18" fill="none"><path fill="currentColor" fill-rule="evenodd" d="M9.506 7.207a.91.91 0 0 1 1.287 0 4.975 4.975 0 0 1 0 7.036l-2.3 2.3a4.975 4.975 0 1 1-7.036-7.036l.01-.01 2.02-1.962a.91.91 0 0 1 1.268 1.306L2.74 10.798a3.155 3.155 0 0 0 4.466 4.457l2.3-2.3a3.154 3.154 0 0 0 0-4.46.91.91 0 0 1 0-1.288Z" clip-rule="evenodd"/><path fill="currentColor" fill-rule="evenodd" d="M15.256 2.744a3.155 3.155 0 0 0-4.462 0l-2.3 2.3a3.155 3.155 0 0 0 0 4.462.91.91 0 0 1-1.287 1.287 4.975 4.975 0 0 1 0-7.036l2.3-2.3a4.975 4.975 0 1 1 7.036 7.036l-.01.01-2.02 1.962a.91.91 0 1 1-1.268-1.306l2.015-1.957a3.154 3.154 0 0 0-.004-4.458Z" clip-rule="evenodd"/></svg>
