<svg xmlns="http://www.w3.org/2000/svg" width="24" height="24" viewBox="0 0 24 24" fill="none"><path fill="currentColor" d="M11.79 5.1a1.437 1.437 0 0 1-1.438-1.437V1.938a1.437 1.437 0 1 1 2.875 0v1.725c0 .794-.644 1.437-1.438 1.437ZM11.79 17.175a1.437 1.437 0 0 1-1.438-1.437V8.263a1.437 1.437 0 1 1 2.875 0v7.475c0 .794-.644 1.437-1.438 1.437ZM11.79 23.5a1.437 1.437 0 0 1-1.438-1.438v-1.725a1.437 1.437 0 1 1 2.875 0v1.725c0 .794-.644 1.438-1.438 1.438ZM6.617 18.9a1.437 1.437 0 0 1-1.437-1.438v-1.725a1.437 1.437 0 1 1 2.875 0v1.725c0 .794-.644 1.438-1.438 1.438ZM16.969 9.7a1.437 1.437 0 0 1-1.438-1.437V6.538a1.437 1.437 0 1 1 2.875 0v1.725c0 .794-.643 1.437-1.437 1.437ZM6.617 12.575a1.437 1.437 0 0 1-1.437-1.438V5.962a1.437 1.437 0 1 1 2.875 0v5.175c0 .794-.644 1.438-1.438 1.438ZM16.969 19.475a1.437 1.437 0 0 1-1.438-1.438v-5.175a1.437 1.437 0 1 1 2.875 0v5.175c0 .794-.643 1.438-1.437 1.438ZM1.438 14.3A1.437 1.437 0 0 1 0 12.863v-1.725a1.437 1.437 0 1 1 2.875 0v1.725c0 .794-.643 1.437-1.437 1.437ZM22.14 14.3a1.437 1.437 0 0 1-1.437-1.437v-1.725a1.437 1.437 0 1 1 2.875 0v1.725c0 .794-.643 1.437-1.437 1.437Z"/></svg>
