<svg xmlns="http://www.w3.org/2000/svg" width="18" height="18" fill="none"><path fill="currentColor" d="M0 1.29C0 .577.596 0 1.33 0h15.34C17.404 0 18 .578 18 1.29v15.42c0 .713-.596 1.29-1.33 1.29H1.33C.596 18 0 17.423 0 16.711V1.289Z"/><path fill="#fff" d="M5.47 15.064V6.96H2.775v8.104H5.47Zm-1.347-9.21c.94 0 1.524-.622 1.524-1.4-.018-.795-.585-1.4-1.506-1.4-.922 0-1.524.605-1.524 1.4 0 .778.585 1.4 1.489 1.4h.017Zm2.837 9.21h2.694v-4.525c0-.242.017-.485.088-.657.195-.484.638-.986 1.382-.986.975 0 1.365.744 1.365 1.833v4.335h2.693v-4.647c0-2.489-1.329-3.647-3.1-3.647-1.453 0-2.091.812-2.446 1.365h.018V6.96H6.96c.035.76 0 8.104 0 8.104Z"/></svg>
