<svg xmlns="http://www.w3.org/2000/svg" width="25" height="24" viewBox="0 0 25 24" fill="none"><path fill="currentColor" fill-rule="evenodd" d="M18.998 10.638a1.11 1.11 0 0 0 1.528-.392 1.122 1.122 0 0 0-.389-1.536c-4.43-2.645-11.434-2.9-15.656-1.607a1.122 1.122 0 0 0 .653 2.146c3.673-1.12 10.017-.908 13.864 1.389Zm-.128 3.403a.94.94 0 0 0-.304-1.287C14.88 10.478 9.494 9.829 5.16 11.159a.936.936 0 0 0 .542 1.792c3.792-1.16 8.698-.58 11.887 1.398a.928.928 0 0 0 1.281-.308Zm-1.45 3.268a.75.75 0 0 0-.246-1.03c-3.145-1.933-7.045-2.383-11.597-1.336a.748.748 0 0 0 .33 1.45c4.155-.957 7.684-.58 10.485 1.16a.742.742 0 0 0 1.02-.244h.009ZM11.939 0A12 12 0 1 1 .008 12a11.968 11.968 0 0 1 11.93-12Z" clip-rule="evenodd"/></svg>
