<svg xmlns="http://www.w3.org/2000/svg" width="20" height="16" fill="none"><path fill="currentColor" d="M20 1.856c-.75.33-1.542.536-2.375.66.833-.495 1.5-1.279 1.792-2.227a9.089 9.089 0 0 1-2.625.99 4.174 4.174 0 0 0-3-1.279c-2.25 0-4.084 1.814-4.084 4.041 0 .33.042.619.125.907A11.715 11.715 0 0 1 1.375.701c-.333.619-.542 1.278-.542 2.02 0 1.403.709 2.64 1.834 3.382a4.86 4.86 0 0 1-1.875-.495v.041a4.085 4.085 0 0 0 3.291 4A4.586 4.586 0 0 1 3 9.773c-.25 0-.542-.041-.792-.082.542 1.608 2.042 2.804 3.834 2.804-1.417 1.072-3.167 1.732-5.084 1.732-.333 0-.666 0-.958-.041A11.683 11.683 0 0 0 6.292 16c7.541 0 11.666-6.186 11.666-11.546v-.536A7.442 7.442 0 0 0 20 1.856Z"/></svg>
