<svg viewBox="0 0 320 150" fill="none" xmlns="http://www.w3.org/2000/svg"><path d="M133.623 64.676a318.743 318.743 0 003.81-4.233 248.168 248.168 0 003.894-4.317 448.253 448.253 0 003.471-4.148 167.573 167.573 0 002.878-3.386h14.984a568.084 568.084 0 01-8.804 9.904 240.434 240.434 0 01-9.312 9.651c1.693 1.524 3.443 3.358 5.249 5.503a120.246 120.246 0 015.248 6.518 96.569 96.569 0 014.656 6.773c1.411 2.257 2.597 4.317 3.556 6.18h-14.476a132.649 132.649 0 00-3.132-4.825 81.115 81.115 0 00-3.641-5.334 61.547 61.547 0 00-4.148-5.164c-1.411-1.637-2.822-3.02-4.233-4.148v19.47H121.01V29.46l12.613-2.033v37.25zm73.595 26.921c-2.144.62-4.91 1.185-8.296 1.693-3.386.565-6.942.847-10.667.847-3.781 0-6.942-.508-9.481-1.524-2.484-1.016-4.459-2.427-5.926-4.233-1.468-1.862-2.512-4.063-3.133-6.603-.62-2.54-.931-5.333-.931-8.381V48.592h12.614v23.28c0 4.064.536 6.998 1.608 8.804 1.073 1.806 3.076 2.71 6.011 2.71.903 0 1.862-.029 2.878-.085a88.305 88.305 0 002.709-.339v-34.37h12.614v43.005zm40.37-21.08c0-8.126-2.991-12.19-8.974-12.19-1.298 0-2.596.17-3.894.508-1.241.339-2.257.762-3.047 1.27v22.942c.62.113 1.411.225 2.37.338.959.057 2.003.085 3.132.085 3.443 0 6.039-1.185 7.789-3.555 1.749-2.37 2.624-5.503 2.624-9.397zm12.868.34c0 3.555-.536 6.772-1.609 9.65-1.016 2.878-2.511 5.333-4.487 7.365-1.975 2.032-4.402 3.612-7.28 4.74-2.878 1.073-6.152 1.61-9.82 1.61a48.41 48.41 0 01-4.826-.255 72.41 72.41 0 01-4.91-.507 96.444 96.444 0 01-4.571-.762 63.05 63.05 0 01-3.894-1.016V29.459l12.614-2.032v22.18c1.411-.62 2.878-1.1 4.402-1.439 1.524-.338 3.16-.508 4.91-.508 3.16 0 5.954.565 8.381 1.694 2.427 1.072 4.458 2.624 6.095 4.656 1.637 2.031 2.878 4.486 3.725 7.365.846 2.822 1.27 5.982 1.27 9.481zm7.578.338c0-3.95.592-7.393 1.778-10.328 1.241-2.991 2.85-5.475 4.825-7.45a19.996 19.996 0 016.773-4.487c2.596-1.016 5.248-1.524 7.957-1.524 6.321 0 11.316 1.947 14.984 5.842 3.669 3.838 5.503 9.51 5.503 17.016 0 .733-.028 1.552-.085 2.455-.056.846-.112 1.608-.169 2.285h-28.614c.282 2.596 1.496 4.656 3.64 6.18 2.145 1.524 5.023 2.286 8.635 2.286 2.314 0 4.572-.198 6.773-.593 2.257-.451 4.092-.987 5.503-1.608l1.693 10.243c-.678.339-1.581.678-2.709 1.016a29.571 29.571 0 01-3.81.847 45.275 45.275 0 01-4.402.677c-1.58.17-3.16.254-4.741.254-4.007 0-7.506-.593-10.497-1.778-2.935-1.185-5.39-2.793-7.365-4.825-1.919-2.088-3.358-4.543-4.318-7.365-.903-2.822-1.354-5.87-1.354-9.143zm29.63-4.825a11.833 11.833 0 00-.593-3.133 6.982 6.982 0 00-1.439-2.709c-.621-.79-1.439-1.439-2.455-1.947-.96-.508-2.173-.762-3.64-.762-1.411 0-2.625.254-3.641.762-1.016.452-1.862 1.072-2.539 1.862-.678.79-1.214 1.722-1.609 2.794a19.646 19.646 0 00-.762 3.133h16.678z" fill="#253391"/><path d="M120.712 128.969V104.24h16.7v4.675h-11.133v4.853h9.884v4.567h-9.884v5.96h11.954v4.674h-17.521zm40.08 0a185.125 185.125 0 01-2.89-6.458 242.368 242.368 0 01-2.712-6.638 337.73 337.73 0 01-2.391-6.28 273.45 273.45 0 01-1.856-5.353h6.138c.476 1.427.987 2.974 1.534 4.639l1.713 4.924a2228.53 2228.53 0 001.713 4.711 71.011 71.011 0 001.534 3.889c.452-1.094.952-2.39 1.499-3.889a171.343 171.343 0 001.713-4.711 198.416 198.416 0 001.713-4.924 583.126 583.126 0 001.57-4.639h5.924a738.651 738.651 0 01-1.892 5.353 220 220 0 01-2.355 6.28 242.368 242.368 0 01-2.712 6.638 185.125 185.125 0 01-2.89 6.458h-5.353zm29.107 0V104.24H206.6v4.675h-11.134v4.853h9.885v4.567h-9.885v5.96h11.954v4.674h-17.521zm48.939 0a123.73 123.73 0 00-5.174-8.385 85.101 85.101 0 00-5.923-7.815v16.2h-5.496V104.24h4.532a43.718 43.718 0 012.605 2.891 86.327 86.327 0 012.891 3.675 93.529 93.529 0 012.961 4.032c.976 1.38 1.892 2.712 2.748 3.997V104.24h5.531v24.729h-4.675zm39.427-24.729v4.746h-7.458v19.983h-5.567v-19.983h-7.458v-4.746h20.483zm21.027 20.483c.785 0 1.427-.06 1.927-.178.523-.143.94-.322 1.249-.536.309-.238.523-.511.642-.82.119-.31.179-.655.179-1.035 0-.809-.381-1.475-1.142-1.999-.761-.547-2.07-1.13-3.925-1.748a34.46 34.46 0 01-2.427-.964 9.71 9.71 0 01-2.177-1.391 6.972 6.972 0 01-1.57-2.034c-.404-.809-.606-1.785-.606-2.927 0-1.141.214-2.164.642-3.068a6.554 6.554 0 011.82-2.356c.785-.642 1.736-1.13 2.855-1.463 1.118-.356 2.378-.535 3.782-.535 1.665 0 3.105.179 4.318.535 1.213.357 2.212.75 2.997 1.178l-1.605 4.389a13.864 13.864 0 00-2.32-.928c-.833-.285-1.844-.428-3.033-.428-1.332 0-2.296.19-2.891.571-.57.357-.856.916-.856 1.677 0 .452.107.833.321 1.142.214.309.512.595.892.857.405.237.857.463 1.356.678.524.19 1.095.392 1.713.606 1.285.476 2.403.952 3.355 1.428.951.452 1.736.987 2.355 1.605a5.788 5.788 0 011.427 2.177c.309.833.464 1.844.464 3.033 0 2.308-.809 4.104-2.427 5.389-1.617 1.261-4.056 1.891-7.315 1.891a18.59 18.59 0 01-2.962-.214 18.018 18.018 0 01-2.355-.464 14.696 14.696 0 01-1.748-.607 14.399 14.399 0 01-1.214-.606l1.57-4.425c.738.404 1.642.773 2.712 1.106 1.095.309 2.427.464 3.997.464z" fill="#4D7CF4"/><path d="M77.484 27.5s5.569 8.277 6.126 13.306c.557 5.03 0 8.008 0 8.008" stroke="#7DA0F7" stroke-width="1.663"/><path fill="#0A349F" d="M65.66 12.98l4.177-2.759a2.217 2.217-33.443 013.072.628l9.912 15.008a2.217 2.217-33.443 01-.629 3.072l-4.176 2.758a2.217 2.217-33.443 01-3.072-.628L65.033 16.05a2.217 2.217-33.443 01.628-3.071z"/><path d="M7 47.118h96.669l-7.108 21.624H14.108L7 47.118z" fill="#1D59F1"/><path fill="#4D7CF4" d="M7 36.943h96.669v10.176H7zm10.176 85.221h77.59v10.176h-77.59z"/><path d="M29.895 110.717h52.15l12.72 11.447h-77.59l12.72-11.447z" fill="#7DA0F7"/><path d="M23.161 56.022h64.346l-6.434 61.129H29.596L23.16 56.022z" fill="#4D7CF4"/><path fill-rule="evenodd" clip-rule="evenodd" d="M55.852 64.066a1.192 1.192 0 00-1.107 1.25v.318c.03.36.085.717.156 1.07.104.676.141 1.361.111 2.045a1.232 1.232 0 01-.368.583l-.025.477a14.73 14.73 0 00-2.034.314 14.475 14.475 0 00-7.358 4.2l-.406-.287a.875.875 0 01-.668-.068 10.512 10.512 0 01-1.516-1.369 9.376 9.376 0 00-.738-.786l-.25-.2a1.351 1.351 0 00-.783-.295c-.346-.018-.68.13-.898.399a1.193 1.193 0 00.278 1.661l.233.186c.3.2.612.382.933.546a9.693 9.693 0 011.687 1.183c.134.191.212.416.224.65l.369.337a14.567 14.567 0 00-2.295 10.151l-.474.136a1.546 1.546 0 01-.483.486c-.66.177-1.336.288-2.018.333a9.415 9.415 0 00-1.082.085l-.299.067h-.034a1.132 1.132 0 00-.654 1.914c.302.304.75.412 1.156.279h.022l.305-.034a9.028 9.028 0 001.01-.369 10.549 10.549 0 011.964-.574c.233.013.456.093.646.228l.507-.085a14.642 14.642 0 006.49 8.118l-.206.431c.094.198.13.418.101.636a10.91 10.91 0 01-1.019 1.845 9.43 9.43 0 00-.605.901l-.144.304a1.134 1.134 0 001.099 1.692c.424-.048.786-.33.935-.73l.14-.287a9.34 9.34 0 00.324-1.031c.092-.227.171-.46.249-.687.174-.51.339-.995.622-1.335a.912.912 0 01.483-.236l.254-.462a14.569 14.569 0 0010.387.026l.225.43a.88.88 0 01.575.347c.318.605.575 1.239.77 1.893.09.35.2.695.328 1.033l.14.287a1.132 1.132 0 002.007.221 1.13 1.13 0 00.027-1.184l-.147-.305a9.415 9.415 0 00-.605-.897 11.962 11.962 0 01-1.014-1.787.879.879 0 01.115-.676 3.863 3.863 0 01-.188-.454 14.662 14.662 0 006.462-8.147l.48.085a.897.897 0 01.63-.234c.67.129 1.328.338 1.964.575.33.152.668.28 1.01.389.045.012.101.023.158.034l.133.028h.022a1.132 1.132 0 001.422-1.438 1.132 1.132 0 00-.92-.754l-.328-.078a9.39 9.39 0 00-1.081-.084 10.313 10.313 0 01-2.018-.333 1.27 1.27 0 01-.487-.487l-.457-.135a14.62 14.62 0 00-2.342-10.13l.399-.368a.89.89 0 01.21-.638c.518-.447 1.081-.84 1.673-1.177.32-.164.632-.346.933-.546l.246-.2a1.132 1.132 0 10-1.4-1.758l-.25.199c-.262.247-.508.51-.74.786-.446.51-.94.975-1.475 1.39a1.251 1.251 0 01-.683.075l-.427.304a14.766 14.766 0 00-9.355-4.512c0-.12-.011-.28-.019-.393a5.33 5.33 0 01-.007-.11.887.887 0 01-.368-.56 10.53 10.53 0 01.128-2.04c.073-.355.124-.71.156-1.07v-.338a1.19 1.19 0 00-1.107-1.251l-.016-.008zm-1.408 8.731l-.338 5.904h-.026a1.018 1.018 0 01-.56.852.955.955 0 01-1.015-.091l-4.842-3.431a11.595 11.595 0 015.583-3.041 11.98 11.98 0 011.195-.193h.003zm9.562 3.252a11.704 11.704 0 00-6.744-3.252l.335 5.897a.995.995 0 001.612.764l4.797-3.41zm-18.101 2.203a11.595 11.595 0 00-1.645 7.334l5.683-1.635v-.017a.994.994 0 00.39-1.705v-.025l-4.428-3.952.002-.002-.002.002zm21.558 7.313a11.801 11.801 0 00-1.694-7.314l.007.013-4.395 3.934a1 1 0 00-.314.97c.08.356.35.639.705.735v.022l5.69 1.64zM54.945 82.51h1.812l1.107 1.406-.402 1.758-1.628.783-1.631-.783-.384-1.758 1.126-1.406zm6.032 4.797a1.021 1.021 0 00-.228 0l-.007.025a.997.997 0 00-.86 1.385l2.265 5.483c2.177-1.391 3.845-3.47 4.69-5.904l-5.86-.99zm-10.07.025a.996.996 0 01.819.453c.18.277.21.626.079.93v.022l-2.251 5.439a11.63 11.63 0 01-4.662-5.843l5.81-.986a.945.945 0 01.195 0l.01-.015zm5.816 2.887a.997.997 0 00-.907-.52l.015.032a.997.997 0 00-.845.498l-2.874 5.167c2.047.697 4.246.81 6.352.328l1.145-.338-2.864-5.167h-.022z" fill="#fff"/><path d="M54.745 65.316h.14l-.001-.007-.139.007zm1.108-1.25l.067-.122-.036-.02-.041.003.01.139zm-1.108 1.568h-.139l.001.012.138-.012zm.156 1.07l.137-.021-.001-.007-.136.028zm.111 2.045l.134.038.004-.016v-.016l-.137-.006zm-.368.583l-.092-.104-.043.039-.003.058.138.007zm-.025.477l.011.138.12-.01.007-.121-.138-.007zm-2.034.314l.03.135h.001l-.03-.135zm-7.358 4.2l-.08.113.098.07.082-.088-.1-.095zm-.406-.287l.08-.113-.055-.04-.065.02.04.133zm-.668-.068l-.082.111.008.007.009.004.065-.122zM42.637 72.6l-.106.09.004.003.102-.093zm-.738-.786l.095-.1-.009-.008-.086.108zm-.25-.2l-.087.109.086-.108zm-.783-.295l-.007.138.007-.138zm-.898.399l-.107-.088-.005.007.112.08zm.278 1.661l.086-.108-.005-.004-.081.112zm.233.186l-.087.109.01.007.077-.116zm.933.546l.067-.121-.004-.002-.063.123zm1.687 1.183l.113-.08-.01-.013-.012-.011-.091.104zm.224.65l-.138.007.003.056.042.038.093-.102zm.369.337l.115.077.066-.099-.087-.08-.094.102zm-2.295 10.151l.038.134.116-.034-.017-.12-.137.02zm-.474.136l-.038-.134-.05.015-.029.045.117.074zm-.483.486l.036.134.02-.005.018-.011-.074-.118zm-2.018.333l.003.139h.006l-.01-.139zm-1.082.085l-.019-.138-.011.003.03.135zm-.299.067v.139h.016l.015-.004-.03-.135zm-.034 0V87.4h-.01l-.009.001.02.137zm-.916.756l.132.044-.132-.044zm.262 1.158l-.099.097.1-.097zm1.156.279v-.14h-.022l-.02.008.042.132zm.022 0v.138h.016l-.016-.138zm.305-.034l.015.137h.012l.012-.004-.04-.133zm1.01-.369l-.051-.129-.004.002.055.127zm1.964-.574l.008-.139h-.017l-.017.002.026.137zm.646.228l-.08.112.046.034.056-.01-.022-.136zm.507-.085l.132-.042-.037-.114-.118.02.023.136zm6.49 8.118l.125.06.055-.115-.11-.064-.07.119zm-.206.431l-.125-.06-.029.06.029.06.125-.06zm.101.636l.127.055.008-.018.003-.02-.138-.017zm-1.019 1.845l.11.084.004-.005-.114-.079zm-.605.901l-.12-.071-.005.012.125.059zm-.144.304l.12.07.006-.011-.126-.059zm.032 1.183l.116-.076-.116.076zm1.067.509l.014.138h.001l-.015-.138zm.935-.73l-.126-.061-.004.013.13.048zm.14-.287l.125.061.004-.012-.13-.049zm.324-1.031l-.128-.052-.004.008-.002.01.134.034zm.249-.687l-.131-.044.13.044zm.622-1.335l-.095-.1-.006.005-.006.006.107.09zm.483-.236l.022.136.067-.01.033-.06-.122-.066zm.254-.462l.05-.13-.113-.043-.059.107.122.066zm10.387.026l.123-.064-.057-.11-.115.044.05.13zm.225.43l-.123.065.033.062.07.01.02-.136zm.575.347l.123-.064-.006-.01-.006-.009-.111.083zm.77 1.893l.135-.034-.002-.006-.133.04zm.328 1.033l-.13.049.006.011.124-.06zm.14.287l.13-.049-.005-.012-.124.061zm2.007.221l.116.076-.116-.076zm.027-1.184l-.125.06.005.009.12-.069zm-.147-.305l.125-.06-.006-.01-.12.07zm-.605-.897l-.114.079.004.005.11-.084zm-1.014-1.787l-.135.032.003.014.006.013.126-.059zm.115-.676l.116.075.042-.066-.034-.07-.124.061zm-.188-.454l-.07-.12-.097.058.036.106.131-.044zm6.462-8.147l.023-.136-.119-.021-.037.115.132.042zm.48.085l-.025.136.068.012.05-.046-.093-.102zm.63-.234l.026-.136-.01-.002h-.012l-.004.138zm1.964.575l.058-.126-.01-.004-.048.13zm1.01.389l-.041.132.005.002.037-.134zm.158.034l.027-.136-.027.136zm.133.028l-.032.135.016.004h.016v-.139zm.022 0l.043-.132-.02-.006h-.023v.138zm1.154-.281l.098.097-.098-.097zm.268-1.157l.131-.044v-.001l-.131.045zm-.92-.754l-.032.136.014.002.018-.138zm-.328-.078l.032-.135-.013-.002-.019.138zm-1.081-.084l-.01.138h.007l.003-.138zm-2.018-.333l-.068.121.015.008.017.005.036-.134zm-.487-.487l.12-.068-.027-.049-.054-.016-.04.133zm-.457-.135l-.137-.019-.016.118.114.034.04-.133zm-2.342-10.13l-.094-.1-.087.08.066.098.115-.077zm.399-.368l.094.102.049-.045-.005-.067-.138.01zm.21-.638l-.09-.106-.01.008-.006.008.105.09zm1.673-1.177l-.063-.123-.006.003.069.12zm.933-.546l.077.116.01-.008-.087-.108zm.246-.2l-.073-.117-.007.005-.007.005.087.108zm-.224-2.03l.045-.132-.045.131zm-1.177.272l.087.108.006-.005.006-.006-.099-.097zm-.25.199l-.087-.109-.008.008.095.1zm-.739.786l.105.091.002-.002-.107-.09zm-1.475 1.39l.052.13.018-.008.015-.012-.085-.11zm-.683.075l.024-.136-.057-.01-.047.033.08.113zm-.427.304l-.1.096.082.087.098-.07-.08-.113zm-9.355-4.512h-.139v.126l.126.012.013-.138zm-.019-.393l.138-.01-.138.01zm-.007-.11l.139-.005-.003-.07-.057-.038-.079.114zm-.368-.56l-.139.004v.011l.003.01.136-.025zm.128-2.04l-.136-.028v.005l.136.023zm.156-1.07l.138.012v-.012h-.138zm0-.338l-.139-.008v.008h.139zm-1.107-1.251l-.068.121.027.015.031.002.01-.138zm-1.762 14.627v.139h.13l.008-.13-.138-.009zm.338-5.904l.138.008.009-.146h-.147v.138zm-.364 5.904v-.138h-.132l-.006.132.139.006zm-.56.852l.065.123-.066-.123zm-1.015-.091l.082-.112-.002-.001-.08.113zm-4.842-3.431l-.097-.1-.119.117.136.096.08-.113zm5.583-3.041l-.03-.135.03.135zm1.195-.193v-.138h-.016l.016.138zm2.821 0l.017-.138-.165-.02.01.166.138-.008zm6.744 3.252l.08.113.136-.096-.119-.116-.097.099zm-6.41 2.645l.14-.002v-.006l-.14.008zm1.613.764l-.08-.113-.006.005.086.108zm-13.304-1.206l-.098-.098-.104.103.11.098.092-.103zm-1.645 7.334l-.137.015.018.163.158-.045-.039-.133zm5.683-1.635l.038.134.1-.03v-.104h-.138zm0-.017l-.037-.133-.102.028v.105h.139zm.705-.735l.135.03-.135-.03zm-.315-.97h-.138v.063l.047.041.091-.104zm0-.025h.139v-.063l-.046-.04-.093.103zm-4.426-3.954l.118.073-.216-.17.098.097zm19.862.001l.118-.073-.242.135.124-.062zm1.694 7.314l-.039.133.16.046.016-.166-.137-.013zm-1.687-7.3l.092.103.079-.07-.047-.096-.124.063zm-4.395 3.933l.092.104V82.3l-.092-.103zm-.314.97l-.136.03.136-.03zm.705.735h.138v-.106l-.102-.028-.036.134zm0 .022h-.14v.104l.101.03.039-.134zm-5.015-1.415l.109-.086-.042-.053h-.067v.14zm-1.812 0v-.139h-.066l-.042.053.108.086zm2.92 1.406l.134.031.015-.064-.041-.052-.109.085zm-.403 1.758l.06.125.06-.029.015-.065-.135-.03zm-1.628.783l-.06.125.06.029.06-.03-.06-.124zm-1.631-.783l-.135.03.014.066.061.03.06-.126zm-.384-1.758l-.108-.086-.041.051.014.065.135-.03zm6.93 3.39l-.015-.137-.095.01-.024.092.134.036zm.228 0L61 87.17h-.003l-.02.137zm-.235.026l.008.139.1-.006.026-.097-.134-.036zm-.789.47l-.117-.074.117.073zm-.071.915l.128-.053v-.002l-.128.055zm2.265 5.483l-.128.053.063.153.14-.09-.075-.116zm4.69-5.904l.131.045.054-.155-.162-.027-.023.137zm-15.111-.51l-.117.075.117-.076zm-.819-.454l.003-.138-.076-.002-.042.063.115.077zm.898 1.383l-.127-.055-.011.026v.029h.138zm0 .022l.128.053.01-.026v-.027h-.138zm-2.251 5.439l-.075.117.14.089.063-.153-.128-.053zm-4.662-5.843l-.023-.137-.164.028.057.156.13-.047zm5.81-.986l-.015-.138-.009.002.023.136zm.195 0l-.014.138.083.009.047-.07-.116-.077zm4.919 2.351l-.005-.138-.211.007.09.19.126-.059zm.907.521l-.122.066.04.073h.082v-.139zm-.892-.488l.003.138.213-.005-.091-.193-.125.06zm-.845.498l-.12-.069-.002.002.122.067zm-2.874 5.167l-.12-.067-.082.145.158.053.044-.13zm6.352.328l.031.135.008-.002-.039-.133zm1.145-.338l.039.133.165-.049-.083-.151-.121.067zm-2.864-5.167l.121-.067-.04-.072h-.08v.139zm-1.861-24.91a1.053 1.053 0 01.978-1.105l-.02-.277a1.33 1.33 0 00-1.235 1.396l.277-.014zm0 .325v-.318h-.277v.318h.277zm.153 1.043a9.41 9.41 0 01-.154-1.055l-.276.024c.031.366.086.728.158 1.085l.272-.054zm.114 2.078a10.65 10.65 0 00-.113-2.072l-.274.042c.102.667.14 1.343.11 2.018l.277.012zm-.415.68a1.37 1.37 0 00.41-.648l-.267-.076c-.057.199-.17.38-.327.517l.184.208zm.021.381l.025-.477-.276-.014-.026.476.277.015zm-2.14.442a14.59 14.59 0 012.013-.311l-.023-.276a14.87 14.87 0 00-2.052.317l.061.27zm-7.29 4.16c1.96-2.084 4.5-3.53 7.289-4.16l-.061-.27a14.613 14.613 0 00-7.43 4.24l.202.19zm-.586-.27l.405.288.16-.226-.405-.287-.16.226zm-.653-.058c.236.127.514.157.773.078l-.08-.265a.736.736 0 01-.562-.057l-.131.244zm-1.553-1.398c.466.512.98.976 1.536 1.388l.165-.223a10.313 10.313 0 01-1.496-1.351l-.205.186zm-.732-.778c.257.244.5.502.728.774l.212-.178a9.527 9.527 0 00-.75-.797l-.19.2zm-.24-.192l.25.2.172-.217-.25-.2-.173.217zm-.704-.266c.257.013.503.105.703.266l.173-.216a1.49 1.49 0 00-.862-.326l-.014.276zm-.783.348a.943.943 0 01.783-.348l.014-.276a1.22 1.22 0 00-1.012.45l.215.174zm.25 1.462a1.054 1.054 0 01-.245-1.469l-.225-.16a1.331 1.331 0 00.309 1.854l.162-.225zm.24.19l-.234-.186-.173.217.233.186.173-.217zm.909.53a9.247 9.247 0 01-.92-.537l-.153.23c.305.203.62.388.947.555l.126-.247zm1.715 1.203a9.834 9.834 0 00-1.71-1.2l-.136.242a9.63 9.63 0 011.663 1.166l.183-.208zm.272.746a1.39 1.39 0 00-.25-.721l-.227.159c.12.17.189.37.2.577l.277-.015zm.323.243l-.368-.338-.187.204.368.338.188-.204zm-2.251 10.234a14.428 14.428 0 012.273-10.055l-.23-.154a14.706 14.706 0 00-2.318 10.248l.275-.04zm-.573.288l.474-.135-.077-.267-.473.135.076.267zm-.447.47c.214-.134.393-.317.527-.53l-.235-.147a1.4 1.4 0 01-.44.443l.148.235zm-2.083.355c.691-.046 1.376-.16 2.045-.338l-.072-.268c-.651.174-1.318.284-1.991.329l.018.276zm-1.072.083c.353-.048.71-.076 1.066-.083l-.006-.277a9.553 9.553 0 00-1.097.085l.037.275zm-.287.066l.299-.068-.061-.27-.3.067.062.27zm-.065.003h.034V87.4h-.034v.277zm-.784.661a.994.994 0 01.803-.662l-.038-.275a1.27 1.27 0 00-1.028.848l.263.09zm.23 1.017a.994.994 0 01-.23-1.017l-.263-.09a1.27 1.27 0 00.294 1.3l.198-.193zm1.013.244a.994.994 0 01-1.014-.245l-.197.195c.338.341.84.463 1.297.313l-.086-.263zm.065-.007h-.022v.277h.022v-.277zm.29-.033l-.305.034.03.275.305-.034-.03-.275zm.97-.358a8.91 8.91 0 01-.995.363l.079.266a9.17 9.17 0 001.026-.374l-.11-.255zm1.994-.584c-.682.129-1.348.326-1.99.583l.103.257c.625-.25 1.274-.442 1.938-.567l-.051-.273zm.751.252a1.371 1.371 0 00-.718-.254l-.016.277c.207.012.405.082.573.203l.161-.226zm.404-.108l-.507.084.045.273.508-.084-.046-.273zm6.584 8.135a14.503 14.503 0 01-6.43-8.041l-.263.085a14.781 14.781 0 006.551 8.194l.142-.238zm-.152.61l.206-.431-.25-.12-.206.431.25.12zm.114.594a1.265 1.265 0 00-.114-.714l-.25.12a.989.989 0 01.089.557l.275.037zm-1.043 1.906c.404-.59.75-1.216 1.032-1.87l-.254-.11a10.773 10.773 0 01-1.006 1.823l.228.157zm-.6.893c.182-.308.38-.604.596-.888l-.22-.168a9.47 9.47 0 00-.614.915l.238.141zm-.137.292l.143-.304-.25-.118-.144.304.25.118zm.022 1.048a.994.994 0 01-.028-1.038l-.24-.138c-.238.414-.225.926.035 1.327l.233-.151zm.936.447a.993.993 0 01-.936-.447l-.233.151c.26.401.723.622 1.198.572l-.029-.276zm.82-.64a.992.992 0 01-.82.64l.03.276a1.272 1.272 0 001.05-.82l-.26-.096zm.145-.3l-.14.287.25.122.14-.288-.25-.121zm.315-1.004a9.2 9.2 0 01-.32 1.015l.26.099c.13-.343.24-.693.329-1.046l-.269-.068zm.252-.697c-.078.227-.156.456-.246.679l.257.104c.093-.232.174-.468.25-.694l-.261-.089zm.646-1.38c-.303.364-.475.876-.646 1.38l.262.089c.176-.519.334-.975.597-1.291l-.213-.178zm.569-.284a1.051 1.051 0 00-.557.272l.19.202a.774.774 0 01.41-.2l-.043-.274zm.153-.391l-.253.46.243.134.253-.461-.243-.133zm10.46-.038a14.43 14.43 0 01-10.289-.025l-.099.258a14.708 14.708 0 0010.486.026l-.098-.26zm.397.496l-.225-.43-.245.128.224.43.246-.128zm.563.328a1.018 1.018 0 00-.666-.4l-.04.274a.741.741 0 01.484.292l.222-.166zm.792 1.936a10.789 10.789 0 00-.78-1.917l-.246.128c.314.597.567 1.223.76 1.869l.266-.08zm.325 1.023a9.22 9.22 0 01-.323-1.017l-.269.068c.09.356.202.706.333 1.048l.259-.099zm.135.276l-.14-.287-.25.121.141.288.25-.122zm.826.649a.994.994 0 01-.82-.637l-.26.098a1.27 1.27 0 001.05.814l.03-.275zm.94-.443a.993.993 0 01-.94.443l-.03.275a1.27 1.27 0 001.202-.566l-.232-.152zm.023-1.039a.994.994 0 01-.024 1.04l.233.151a1.27 1.27 0 00.03-1.33l-.239.139zm-.152-.313l.147.304.25-.121-.147-.304-.25.121zm-.59-.874c.215.283.414.578.596.884l.238-.141a9.502 9.502 0 00-.614-.911l-.22.168zm-1.03-1.812a12.1 12.1 0 001.026 1.807l.228-.158a11.83 11.83 0 01-1.003-1.766l-.251.117zm.124-.81a1.017 1.017 0 00-.133.783l.27-.064a.74.74 0 01.096-.569l-.233-.15zm-.202-.335c.055.161.12.319.194.471l.25-.121a3.735 3.735 0 01-.182-.439l-.262.09zm6.46-8.233a14.523 14.523 0 01-6.4 8.07l.142.238a14.8 14.8 0 006.523-8.224l-.265-.084zm.636-.01l-.48-.084-.047.273.48.084.047-.273zm.611-.235a1.035 1.035 0 00-.728.27l.187.204a.758.758 0 01.533-.197l.008-.277zm2.008.583a12.381 12.381 0 00-1.986-.58l-.052.272c.66.126 1.31.333 1.941.568l.097-.26zm1.004.387a8.406 8.406 0 01-.994-.383l-.116.252c.335.155.679.285 1.027.395l.083-.264zm.143.03a2.421 2.421 0 01-.148-.032l-.073.268c.05.013.112.025.167.036l.054-.272zm.139.03a3.593 3.593 0 00-.14-.03l-.053.272.128.027.065-.27zm-.01-.004h-.023v.277h.022v-.277zm1.054-.24a.994.994 0 01-1.012.246l-.085.264a1.27 1.27 0 001.294-.316l-.197-.195zm.235-1.016a.994.994 0 01-.235 1.015l.197.195a1.27 1.27 0 00.301-1.298l-.263.088zm-.806-.66c.372.05.684.306.807.661l.262-.09a1.27 1.27 0 00-1.032-.846l-.037.275zm-.342-.08l.328.077.064-.27-.328-.077-.064.27zm-1.052-.082c.356.008.712.036 1.066.084l.037-.275a9.553 9.553 0 00-1.098-.086l-.005.277zm-2.051-.337c.668.18 1.353.293 2.045.337l.018-.276a10.17 10.17 0 01-1.991-.329l-.072.268zm-.572-.553c.127.227.315.414.54.54l.135-.242c-.18-.1-.33-.251-.433-.434l-.242.136zm-.375-.07l.456.135.08-.266-.457-.135-.079.266zM67.84 76.359a14.481 14.481 0 012.32 10.033l.275.038a14.758 14.758 0 00-2.365-10.225l-.23.154zm.42-.547l-.399.368.188.204.399-.369-.188-.203zm.198-.627a1.03 1.03 0 00-.242.739l.276-.02a.751.751 0 01.177-.54l-.211-.179zm1.71-1.207c-.599.34-1.17.74-1.695 1.192l.18.21c.513-.44 1.068-.83 1.652-1.161l-.137-.241zm.925-.541a9.277 9.277 0 01-.92.538l.127.247c.326-.167.642-.352.946-.554l-.153-.231zm.236-.192l-.246.2.174.215.246-.2-.174-.215zm.478-.964a.994.994 0 01-.464.954l.147.236c.416-.259.646-.733.593-1.22l-.276.03zm-.66-.829a.994.994 0 01.66.83l.276-.031a1.271 1.271 0 00-.846-1.06l-.09.261zm-1.033.239a.994.994 0 011.032-.239l.091-.261a1.27 1.27 0 00-1.32.305l.197.195zm-.263.21l.25-.2-.172-.216-.25.2.172.216zm-.718.767c.227-.272.47-.53.727-.775l-.19-.2a9.541 9.541 0 00-.75.797l.213.178zm-1.497 1.411a10.683 10.683 0 001.495-1.409l-.209-.182c-.44.503-.927.962-1.456 1.372l.17.22zm-.791.102c.255.044.518.015.758-.083l-.104-.257a1.113 1.113 0 01-.607.067l-.047.273zm-.324.28l.428-.304-.161-.226-.428.305.16.225zm-9.448-4.487a14.627 14.627 0 019.267 4.47l.2-.191a14.905 14.905 0 00-9.442-4.555l-.025.276zm-.144-.522c.008.114.018.27.018.384h.277c0-.125-.011-.291-.019-.403l-.276.02zm-.007-.112c0 .025.004.066.007.112l.276-.019-.006-.105-.277.012zm-.366-.541c.05.264.205.497.425.649l.158-.228a.749.749 0 01-.311-.474l-.272.053zm.127-2.089c-.11.684-.153 1.376-.13 2.067l.277-.01c-.023-.673.02-1.347.127-2.012l-.274-.044zm.155-1.06a9.4 9.4 0 01-.154 1.055l.272.055c.074-.36.125-.72.158-1.085l-.276-.025zm0-.325v.338h.276v-.338h-.277zm-.979-1.113c.575.04 1.008.532.978 1.105l.277.015a1.329 1.329 0 00-1.236-1.396l-.019.276zm-.073-.025l.015.008.135-.242-.015-.009-.135.243zm-1.54 14.522l.337-5.904-.276-.016-.338 5.904.276.016zm-.164.131h.025v-.277h-.026v.277zm-.496.835c.368-.196.615-.548.634-.967l-.277-.013a.88.88 0 01-.488.736l.13.245zm-1.162-.101c.332.242.78.305 1.162.102l-.13-.245a.817.817 0 01-.868-.08l-.164.223zm-4.84-3.43l4.842 3.431.16-.226-4.842-3.431-.16.226zm5.632-3.29a11.734 11.734 0 00-5.65 3.078l.195.198a11.457 11.457 0 015.516-3.005l-.06-.27zm1.21-.194c-.405.044-.808.109-1.208.195l.058.27c.39-.083.785-.147 1.18-.19l-.03-.275zm.019-.001h-.003v.277h.003v-.277zm2.801.275a11.565 11.565 0 016.664 3.214l.194-.198a11.842 11.842 0 00-6.824-3.29l-.034.274zm.49 5.752L57.4 72.79l-.276.016.334 5.897.277-.016zm.489.768a.856.856 0 01-.489-.762l-.277.004c.006.431.256.824.647 1.01l.119-.252zm.899-.104a.854.854 0 01-.9.105l-.118.25a1.13 1.13 0 001.19-.139l-.172-.216zm4.803-3.414l-4.797 3.41.16.225 4.797-3.41-.16-.225zm-17.928 2.213l-.185.206.185-.206zm-1.6 7.422a11.456 11.456 0 011.625-7.246l-.236-.145a11.733 11.733 0 00-1.664 7.42l.275-.03zm5.507-1.753l-5.683 1.635.077.266 5.682-1.634-.076-.267zm-.1.116v.017h.276v-.017h-.277zm.708-.766a.856.856 0 01-.607.633l.074.267c.398-.11.71-.431.803-.838l-.27-.062zm-.27-.835c.236.207.34.528.27.835l.27.062a1.133 1.133 0 00-.359-1.106l-.182.21zm-.048-.13v.026h.277v-.025h-.277zm-4.382-3.847l4.428 3.951.185-.207-4.428-3.951-.185.207zm-.025-.178v.002l.235.145.002-.002-.236-.145zm.215.172l.002-.002-.196-.196-.002.002.196.196zm19.648-.026a11.663 11.663 0 011.674 7.227l.275.027a11.94 11.94 0 00-1.713-7.4l-.236.145zm.249-.121l-.007-.014-.248.124.007.013.248-.123zM61.473 82.3l4.395-3.933-.185-.207-4.394 3.933.184.207zm-.271.837a.861.861 0 01.27-.836l-.183-.208a1.139 1.139 0 00-.358 1.104l.27-.06zm.606.631a.845.845 0 01-.606-.631l-.27.06c.09.407.399.73.803.839l.073-.268zm.102.156v-.022h-.277v.022h.277zm5.59 1.507l-5.69-1.64-.077.266 5.691 1.64.077-.266zm-10.743-3.06h-1.812v.277h1.812v-.278zm1.216 1.459l-1.107-1.407-.218.172 1.107 1.406.218-.171zm-.376 1.874l.402-1.758-.27-.062-.402 1.758.27.062zm-1.703.877l1.628-.783-.12-.25-1.628.783.12.25zm-1.75-.783l1.63.783.12-.25-1.631-.783-.12.25zm-.46-1.853l.384 1.758.27-.06-.383-1.757-.271.059zm1.153-1.522L53.71 83.83l.217.173 1.125-1.406-.216-.173zm5.927 5.02a.896.896 0 01.194 0l.039-.274a1.16 1.16 0 00-.263 0l.03.275zm.112-.076l.007-.025-.268-.072-.007.025.268.072zm-.805.507a.858.858 0 01.68-.404l-.017-.277c-.368.021-.703.22-.898.534l.235.147zm-.061.787a.858.858 0 01.061-.787l-.235-.147a1.136 1.136 0 00-.082 1.043l.256-.109zm2.265 5.485l-2.265-5.483-.256.105 2.265 5.484.256-.106zm4.431-5.897c-.834 2.404-2.482 4.458-4.634 5.833l.15.234c2.202-1.408 3.89-3.512 4.746-5.976l-.262-.09zm-5.752-.806l5.86.988.046-.273L61 87.17l-.046.273zm-9.112.266a1.134 1.134 0 00-.932-.516l-.005.277a.857.857 0 01.704.39l.233-.151zm.09 1.06a1.127 1.127 0 00-.09-1.06l-.233.15a.85.85 0 01.069.8l.254.11zm.012-.033v-.022h-.278v.022h.278zm-2.262 5.492l2.251-5.44-.256-.105-2.251 5.439.256.106zm-4.92-5.85a11.768 11.768 0 004.717 5.914l.15-.234a11.491 11.491 0 01-4.607-5.773l-.26.094zm5.916-1.168l-5.81.985.047.273 5.81-.985-.047-.273zm.233-.001a1.089 1.089 0 00-.224 0l.029.275a.807.807 0 01.167 0l.028-.275zm-.119.045l-.01.016.23.153.01-.015-.23-.154zm5.028 2.582a.859.859 0 01.781.448l.244-.132a1.136 1.136 0 00-1.034-.593l.009.277zm.136-.166l-.015-.032-.25.119.014.032.251-.119zm-.85.627a.859.859 0 01.728-.429l-.007-.277c-.396.01-.763.22-.962.568l.24.138zm-2.873 5.166l2.874-5.168-.242-.134-2.874 5.167.242.135zm6.2.125a11.515 11.515 0 01-6.276-.324l-.09.262a11.79 11.79 0 006.428.332l-.062-.27zm1.136-.336l-1.144.338.078.266 1.145-.338-.079-.266zm-2.945-4.967l2.863 5.167.243-.134-2.864-5.167-.242.134zm.1.072h.021v-.278h-.022v.278z" fill="#fff"/></svg>